<?xml version="1.0" encoding="UTF-8" standalone="no"?>
<svg xmlns="http://www.w3.org/2000/svg" 
    id="Layer_1" data-name="Layer 1" 
    version="1.1">
        <symbol id="data" viewBox="0 0 400 400">
            <path fill="#e6879b" d="M112.86,276.65h28.66a5.17,5.17,0,0,0,5.16-5.17V199.83a5.16,5.16,0,0,0-5.16-5.16H112.86a5.17,5.17,0,0,0-5.17,5.16v71.65A5.18,5.18,0,0,0,112.86,276.65ZM118,205h18.33v61.32H118Z"></path>
            <path fill="#e6879b" d="M179.68,276.65h28.66a5.17,5.17,0,0,0,5.16-5.17V121a5.17,5.17,0,0,0-5.16-5.16H179.68a5.17,5.17,0,0,0-5.17,5.16V271.48A5.18,5.18,0,0,0,179.68,276.65Zm5.16-150.47h18.33V266.32H184.84Z"></path>
            <path fill="#e6879b" d="M246.5,276.65h28.66a5.18,5.18,0,0,0,5.17-5.17V163.83a5.17,5.17,0,0,0-5.17-5.16H246.5a5.17,5.17,0,0,0-5.17,5.16V271.48A5.18,5.18,0,0,0,246.5,276.65ZM251.67,169H270v97.32H251.67Z"></path>
            <path fill="#e6879b" d="M315.8,293H89.36V101.86a5.17,5.17,0,1,0-10.33,0V298.14a5.18,5.18,0,0,0,5.17,5.17H315.8a5.17,5.17,0,1,0,0-10.33Z"></path>
        </symbol>
        <symbol id="hr" viewBox="0 0 400 400">
            <path fill="#e6879b" d="M265.05,133.54a29.82,29.82,0,1,0-29.82-29.82A29.85,29.85,0,0,0,265.05,133.54Zm0-48.64a18.82,18.82,0,1,1-18.82,18.82A18.84,18.84,0,0,1,265.05,84.9Z"></path>
            <path fill="#e6879b" d="M246.66,177.44a24.71,24.71,0,0,0-24.47-24.88H179.26a24.7,24.7,0,0,0-24.46,24.88v59.15a24.77,24.77,0,0,0,16.11,23.08v46.21c0,11.15,7.39,20.22,16.48,20.22h26.74c9.07,0,16.45-9.07,16.45-20.22V259.66a24.74,24.74,0,0,0,16.08-23.07Zm-11,59.15A13.61,13.61,0,0,1,224.24,250l-4.66.72v55.16c0,5.27-2.88,9.22-5.45,9.22H187.39c-2.59,0-5.48-4-5.48-9.22V250.71l-4.67-.71a13.62,13.62,0,0,1-11.44-13.41V177.44a13.69,13.69,0,0,1,13.46-13.88h42.93a13.7,13.7,0,0,1,13.47,13.88Z"></path>
            <path fill="#e6879b" d="M200.76,147.9a29.83,29.83,0,1,0-29.82-29.83A29.86,29.86,0,0,0,200.76,147.9Zm0-48.65a18.83,18.83,0,1,1-18.82,18.82A18.84,18.84,0,0,1,200.76,99.25Z"></path>
            <path fill="#e6879b" d="M286.51,138.27H243.58a5.5,5.5,0,0,0,0,11h42.93a14,14,0,0,1,13.7,13.82v59.15a14,14,0,0,1-11.82,13.41l-4.67.72v55.16c0,5.31-2.78,9.28-5.27,9.28H251.71a5.5,5.5,0,1,0,0,11h26.74c9.12,0,16.27-8.91,16.27-20.28V245.34a24.82,24.82,0,0,0,16.49-23.1V163.07A24.83,24.83,0,0,0,286.51,138.27Z"></path>
            <path fill="#e6879b" d="M135,133.54a29.82,29.82,0,1,0-29.82-29.82A29.85,29.85,0,0,0,135,133.54Zm0-48.64a18.82,18.82,0,1,1-18.82,18.82A18.84,18.84,0,0,1,135,84.9Z"></path>
            <path fill="#e6879b" d="M148.29,300.81H121.55c-2.49,0-5.27-4-5.27-9.28V236.37l-4.67-.72a14,14,0,0,1-11.82-13.41V163.1a14,14,0,0,1,13.7-13.83h42.93a5.5,5.5,0,0,0,0-11H113.49a24.84,24.84,0,0,0-24.7,24.82v59.15a24.82,24.82,0,0,0,16.49,23.1v46.19c0,11.37,7.15,20.28,16.27,20.28h26.74a5.5,5.5,0,1,0,0-11Z"></path>
        </symbol>
        <symbol id="rnd" viewBox="0 0 400 400">
            <path fill="#e6879b" d="M279.84,95H120.16A25.18,25.18,0,0,0,95,120.16V279.84A25.18,25.18,0,0,0,120.16,305H279.84A25.18,25.18,0,0,0,305,279.84V120.16A25.18,25.18,0,0,0,279.84,95Zm14.76,46.87v138a14.78,14.78,0,0,1-14.76,14.76H120.16a14.78,14.78,0,0,1-14.76-14.76v-138ZM120.16,105.4H279.84a14.78,14.78,0,0,1,14.76,14.76v11.33H105.4V120.16A14.78,14.78,0,0,1,120.16,105.4Z"></path>
            <path fill="#e6879b" d="M157.05,252.1a5.5,5.5,0,0,0,7.78-7.78L138.51,218l26.32-26.32a5.5,5.5,0,0,0-7.78-7.78l-30.21,30.21a5.5,5.5,0,0,0,0,7.78Z"></path>
            <path fill="#e6879b" d="M235.17,252.1a5.5,5.5,0,0,0,7.78,0l30.21-30.21a5.5,5.5,0,0,0,0-7.78L243,183.9a5.5,5.5,0,0,0-7.78,7.78L261.49,218l-26.32,26.32A5.5,5.5,0,0,0,235.17,252.1Z"></path>
            <path fill="#e6879b" d="M187,273.79a5.4,5.4,0,0,0,1.25.15,5.5,5.5,0,0,0,5.35-4.26l23.51-100.87a5.5,5.5,0,1,0-10.71-2.49L182.89,267.19A5.49,5.49,0,0,0,187,273.79Z"></path>
        </symbol>
        <symbol id="menu" viewBox="0 0 20 20">
            <path fill="rgb(255, 150, 170)" d="M3 18h18v-2H3v2zm0-5h18v-2H3v2zm0-7v2h18V6H3z"></path>
        </symbol>

    <use width="100" height="100" transform="translate(0 0)" href="#data"/>
    <use width="100" height="100" transform="translate(120 0)" href="#hr"/>
    <use width="100" height="100" transform="translate(240 0)" href="#rnd"/> 
    <use width="100" height="100" transform="translate(0 100)" href="#menu"/>
</svg>